<svg xmlns="http://www.w3.org/2000/svg" xmlns:xlink="http://www.w3.org/1999/xlink" version="1.1" width="595.5pt" height="842.25pt" viewBox="0 0 595.5 842.25">
<defs>
<clipPath id="clip_0">
<path transform="matrix(.24,0,0,.24,0,0)" d="M0 0H2481.25V3509.375H0Z" fill-rule="evenodd"/>
</clipPath>
<clipPath id="clip_1">
<path transform="matrix(.24,0,0,.24,0,0)" d="M0 0H2481.25V3509.375H0Z" fill-rule="evenodd"/>
</clipPath>
<clipPath id="clip_2">
<path transform="matrix(.24,0,0,.24,0,0)" d="M0 0H2481.25V3509.375H0Z" fill-rule="evenodd"/>
</clipPath>
</defs>
<g clip-path="url(#clip_0)">
<path transform="matrix(.75,0,0,.75,0,0)" d="M0 0H794V1123H0Z" fill="#ffffff"/>
</g>
<g clip-path="url(#clip_1)">
<path transform="matrix(.75,0,0,.75,0,0)" d="M0 0H794V1123H0Z" fill="#ffffff"/>
</g>
<g clip-path="url(#clip_2)">
<path transform="matrix(-.75,0,0,-.75,550.02529,100.161808)" stroke-width="1" stroke-linecap="butt" stroke-miterlimit="4" stroke-linejoin="miter" fill="none" stroke="#575757" d="M0 .5H673.8898"/>
<path transform="matrix(-.7499999,-.0003828986,.0003828986,-.7499999,549.1542,196.1213)" d="M0 0H3V1H0M4 0H7V1H4M8 0H11V1H8M12 0H15V1H12M16 0H19V1H16M20 0H23V1H20M24 0H27V1H24M28 0H31V1H28M32 0H35V1H32M36 0H39V1H36M40 0H43V1H40M44 0H47V1H44M48 0H51V1H48M52 0H55V1H52M56 0H59V1H56M60 0H63V1H60M64 0H67V1H64M68 0H71V1H68M72 0H75V1H72M76 0H79V1H76M80 0H83V1H80M84 0H87V1H84M88 0H91V1H88M92 0H95V1H92M96 0H99V1H96M100 0H103V1H100M104 0H107V1H104M108 0H111V1H108M112 0H115V1H112M116 0H119V1H116M120 0H123V1H120M124 0H127V1H124M128 0H131V1H128M132 0H135V1H132M136 0H139V1H136M140 0H143V1H140M144 0H147V1H144M148 0H151V1H148M152 0H155V1H152M156 0H159V1H156M160 0H163V1H160M164 0H167V1H164M168 0H171V1H168M172 0H175V1H172M176 0H179V1H176M180 0H183V1H180M184 0H187V1H184M188 0H191V1H188M192 0H195V1H192M196 0H199V1H196M200 0H203V1H200M204 0H207V1H204M208 0H211V1H208M212 0H215V1H212M216 0H219V1H216M220 0H223V1H220M224 0H227V1H224M228 0H231V1H228M232 0H235V1H232M236 0H239V1H236M240 0H243V1H240M244 0H247V1H244M248 0H251V1H248M252 0H255V1H252M256 0H259V1H256M260 0H263V1H260M264 0H267V1H264M268 0H271V1H268M272 0H275V1H272M276 0H279V1H276M280 0H283V1H280M284 0H287V1H284M288 0H291V1H288M292 0H295V1H292M296 0H299V1H296M300 0H303V1H300M304 0H307V1H304M308 0H311V1H308M312 0H315V1H312M316 0H319V1H316M320 0H323V1H320M324 0H327V1H324M328 0H331V1H328M332 0H335V1H332M336 0H339V1H336M340 0H343V1H340M344 0H347V1H344M348 0H351V1H348M352 0H355V1H352M356 0H359V1H356M360 0H363V1H360M364 0H367V1H364M368 0H371V1H368M372 0H375V1H372M376 0H379V1H376M380 0H383V1H380M384 0H387V1H384M388 0H391V1H388M392 0H395V1H392M396 0H397.08085V1H396" fill="#575757"/>
<text fill="#575757" xml:space="preserve" transform="matrix(.75 0 0 .75 255.32402 209.16536)" font-size="17.33" font-family="HKGrotesk" font-weight="bold"><tspan y="16" x="0 20.33789 36.699113 50.76741 66.747898 74.50429 88.487979 103.09778 116.387668 130.37136 144.43965 153.04215 167.02584 182.70172 198.25069">WORK EXPERIENCE</tspan></text>
<text fill="#575757" xml:space="preserve" transform="matrix(.75 0 0 .75 255.32402 238.26537)" font-size="14.66" font-family="Roboto" font-weight="bold"><tspan y="15" x="0 9.983139 17.840836 30.529084 38.451189 42.100938 51.554506 56.900316 65.18739 73.55319 78.899 86.7567 99.44495 112.133197 120.0553">Game Programmer</tspan></text>
<text fill="#575757" xml:space="preserve" transform="matrix(.75 0 0 .75 255.32402 256.877)" font-size="12" font-family="Roboto" font-style="italic"><tspan y="12" x="0 7.3080008 10.188001 16.584002 22.740002 28.704003 31.644003 41.868005 48.264005 52.260004 58.416 64.884 67.824008 74.796009 78.66 85.14001 91.76401 94.644008 101.340007 107.4 109.740009 112.68001 120.37201 126.600009 133.06801 137.06401 143.46 150.08402 156.56401">Black March Studios, Dehradun</tspan></text>
<text fill="#575757" xml:space="preserve" transform="matrix(.75 0 0 .75 255.64005 272.327)" font-size="12" font-family="Roboto"><tspan y="12" x="0 7.872 14.232 20.424 23.34 30.072 36.696 43.056 49.824 54.132535 60.660535 67.280979 74.04897 78.376399 81.2924 91.8044 98.5364 101.4524 107.8124 118.3244 124.6844 131.30414 135.22814 141.58814 148.35614 152.67691 155.59291 162.21692 166.14092 170.19692 173.11292 179.38892 185.91692 189.84091 196.20092 200.51648 207.24848 213.77648 224.28849 230.64849 234.9791 245.49109 251.85109 258.12709 264.73908 271.2671 277.89109 280.80708 287.08308 293.27507 295.62705 299.95735 306.23335 313.07334 315.98933 318.9053 325.43333 332.1653 339.0053 343.0613 349.58934 353.51335 359.87336 366.64137 370.97074 379.98274 382.8987 386.82273">Designed and implemented intricate game mechanics, collaborated with</tspan></text>
<text fill="#575757" xml:space="preserve" transform="matrix(.75 0 0 .75 255.64005 272.327)" font-size="12" font-family="Roboto"><tspan y="28" x="0 6.5280005 10.584001 14.508001 17.424002 23.616002 27.54 33.732004 36.084005 42.10547 48.87347 55.23347 61.425474 64.34147 71.07347 77.69747 84.05747 88.11347 94.30547 100.32422 106.85222 113.47622 120.24422 126.27539 133.00739 137.06339 143.90338 150.67139 157.28339 163.55939 169.91939 173.97539 180.16739 186.2168 190.1408 196.98079 203.01563 209.78363 216.14363 220.30764 223.22364 229.84763 236.20763 242.23242 246.15642 252.51642 258.79243 265.40443 272.0284 274.9444 281.2204 287.7484 290.6644 296.68946 300.74546 307.10548 313.92149 320.53349 323.44947 327.50547 333.86549 344.37748 350.7375 357.36149 361.2855 367.47749 373.51173 380.03974 386.66374">artists, designers and producers to define technical requirements and</tspan></text>
<text fill="#575757" xml:space="preserve" transform="matrix(.75 0 0 .75 255.64005 272.327)" font-size="12" font-family="Roboto"><tspan y="44" x="0 6.276 13.116001 19.740002 25.932003 29.856003 33.912004 40.440004 43.356004 49.980005 53.904005 60.096006 62.448007 65.424 69.588008 76.116008 82.392009 85.30801 88.22401 91.14001 95.06401 101.59201 105.516017 108.432018 115.056018 121.78802 124.764019 130.95601 137.31601 143.84401 154.35602 157.27202 163.63202 169.82402 176.01602 178.99202 181.90802 188.53202 192.45601 198.81601 205.548 209.604 216.132 220.056 222.972 229.812 236.436 239.412 246.252 250.416 253.392 260.124 266.652 277.164 283.524 290.25599 293.17198 299.69999 305.37599 308.352 314.71199 317.62797 323.98799 334.49998 340.86 347.48399 351.408 357.59999">constraints, facilitating seamless integration of gameplay elements.</tspan></text>
<text fill="#575757" xml:space="preserve" transform="matrix(.75 0 0 .75 401.7127 238.54631)" font-size="12" font-family="Roboto" font-weight="bold"><tspan y="12" x="84.890628 91.598628 98.030628 104.750629 107.738628 114.626628 121.514629 128.40262 135.29062 138.27863 142.93463 145.92264 152.63065 159.35065 166.07065 169.05866 175.94666 182.83466 189.72266">Jan 2023 - Jun 2023</tspan></text>
<text fill="#575757" xml:space="preserve" transform="matrix(.75 0 0 .75 254.44406 119.47745)" font-size="12" font-family="Roboto"><tspan y="12" x="0 7.872 14.400001 18.324002 24.852002 28.164002 34.932004 38.988004 41.904005 47.712007 54.072008 60.696008 66.921878 73.65388 77.70988 84.54988 88.71388 95.07388 101.265888 107.457889 110.373889 117.21389 123.83789 130.36589 133.28189 139.50977 148.52176 151.43776 155.36176 161.97376 168.20508 174.56508 180.51708 187.24907 193.60907 197.66507 201.58907 204.50507 210.69707 217.05707 223.27344 226.18944 232.81345 239.04297 245.81098 252.33898 256.26298 262.791 269.02149 271.93748 278.56147 282.48548 288.84547 292.90147 299.63346 303.68946 310.04945 313.97346 320.50148 324.42549 327.34147 334.18147 340.80546 343.15745 349.3789 355.90693 362.5309 369.05894 371.9749 377.6509 383.8429 386.75889">Data-driven professional with expertise in data interpretation, analysis</tspan></text>
<text fill="#575757" xml:space="preserve" transform="matrix(.75 0 0 .75 254.44406 119.47745)" font-size="12" font-family="Roboto"><tspan y="28" x="0 6.5280005 13.152 19.92 25.979048 32.746629 39.274629 43.198629 49.726629 55.78427 61.59227 64.50827 70.70027 77.31227 83.84027 86.75627 89.67227 95.624279 102.152278 106.07628 108.99228 115.83228 122.45628 124.80828 130.85317 137.04517 143.40517 149.76517 155.84917 158.76517 165.38916 172.12116 178.1662 182.0902 188.93019 194.9929 201.3529 207.3049 213.5809 219.9409 222.8569 228.9114 231.82741 238.45142 244.50765 251.03565 257.09803 263.37403 269.90205 273.95805 280.31806 286.67805 290.73405 296.80558 299.72157 306.34556 312.4018 319.1698 325.6978 329.62184 336.14985 342.20704 348.73506 355.35905 361.88706 364.80305 370.47904 374.40306 377.31904 383.59504 389.78703">and data visualization, seeking to excel in a career in data analytics.</tspan></text>
<text fill="#575757" xml:space="preserve" transform="matrix(.75 0 0 .75 254.44406 119.47745)" font-size="12" font-family="Roboto"><tspan y="44" x="0 7.5720007 11.628 18.468 22.632 25.548 31.824002 34.74 41.100004 47.724004 51.648004 60.76172 63.67772 70.30172 79.41211 85.77211 91.72411 95.64812 99.70412 106.23212 112.50812 116.43212 119.34812 125.97212 132.70412 141.8086 144.7246 151.3486 157.5406 160.4566 167.1886 173.8006 177.7246 183.9166 193.00782 197.17182 201.22782 208.06781 218.5798 227.71289 233.98889 240.82889 251.34088 258.07289 260.98887 267.34889 273.30088 282.42189 289.18989 295.7179 299.6419 306.16993 312.3619 318.72193 322.64595 328.83793 337.9336 341.8576 348.6976 357.81446 360.73045 367.35444 371.51844 378.35844 382.41444">Proficient in extracting insights from complex datasets to inform</tspan></text>
<text fill="#575757" xml:space="preserve" transform="matrix(.75 0 0 .75 254.44406 119.47745)" font-size="12" font-family="Roboto"><tspan y="60" x="0 6.1920006 10.116001 14.172001 20.7 24.624 30.984002 37.716005 40.632005 46.908006 50.45703 57.225034 63.585035 69.86103 72.77703 78.96903 81.88503 88.72504 95.34904 98.66104 109.17304 115.70104 121.78504 124.70104 131.32505 138.05704 141.21305 144.75977 151.87577 155.79976 159.85576 166.69576 173.31977 180.05176 183.61524 190.14324 196.76725 203.29524 206.21125 211.88724 215.81124 218.72724 225.00324 231.53124 234.44724 237.99219 244.18419 250.26819 253.18419 256.1002 259.01618 265.20817 268.74415 275.02015 281.86015 288.47215 295.20414 298.12013 304.4801 311.2481 314.8125 323.8245 326.74049 330.6645 337.2765 340.83009 347.3581 350.91603 357.648 364.17604 370.368 376.56 379.47599 386.31599">strategic decision-making. Strong analytical skills coupled with a passion</tspan></text>
<text fill="#575757" xml:space="preserve" transform="matrix(.75 0 0 .75 254.44406 119.47745)" font-size="12" font-family="Roboto"><tspan y="76" x="0 4.164 11.004001 15.060001 18.036002 20.952002 27.312003 33.120004 39.480005 43.536005 50.064004 56.796007 59.712007 66.336009 73.06801 76.04401 82.812007 89.340007 93.26401 99.79201 102.768009 106.69201 113.53201 116.50801 123.27601 127.33201 130.248 136.056 142.416 145.392 152.124 158.736 164.928 167.844 174.46799 180.82799 187.01999 193.21199 196.18799 202.37999 208.99199 215.26799 221.54399 227.90399 234.096 240.288">for leveraging data to drive business success.</tspan></text>
<text fill="#575757" xml:space="preserve" transform="matrix(.75 0 0 .75 3.0999974 25.102437)" font-size="41.33" font-family="HKGrotesk"><tspan y="40" x="168.82813 203.7926 234.72113 272.69239 308.5246 341.1684 380.12849 411.057 449.02827 467.74803 501.38066 536.3451 556.69949 593.9241">ASHUTOSH BAINS</tspan></text>
<text fill="#575757" xml:space="preserve" transform="matrix(.7213719 0 0 .7213719 1.2503755 67.83989)" font-size="17.33" font-family="Roboto"><tspan y="17" x="305.15626 319.4107 334.1136 347.86036 356.0398 371.8595 385.17475 398.9215 412.66828 420.42469 435.19526 451.01496 465.78553 478.5762 492.4499 506.19667">BUSINESS ANALYST</tspan></text>
<path transform="matrix(-.75,0,0,-.75,196.01897,219.59967)" d="M-.000000000000014210855 .000000029802324H2.9999998V1H-.000000000000014210855M3.9999998 .000000029802324H6.9999997V1H3.9999998M7.9999997 .000000029802324H10.999999V1H7.9999997M11.999999 .000000029802324H14.999999V1H11.999999M15.999999 .000000029802324H18.999999V1H15.999999M19.999999 .000000029802324H22.999999V1H19.999999M23.999999 .000000029802324H26.999999V1H23.999999M27.999999 .000000029802324H30.999999V1H27.999999M31.999999 .000000029802324H34.999998V1H31.999999M35.999998 .000000029802324H38.999998V1H35.999998M39.999998 .000000029802324H42.999998V1H39.999998M43.999998 .000000029802324H46.999998V1H43.999998M47.999998 .000000029802324H50.999998V1H47.999998M51.999998 .000000029802324H54.999998V1H51.999998M55.999998 .000000029802324H58.999998V1H55.999998M59.999998 .000000029802324H62.999998V1H59.999998M63.999998 .000000029802324H66.99999V1H63.999998M67.99999 .000000029802324H70.99999V1H67.99999M71.99999 .000000029802324H74.99999V1H71.99999M75.99999 .000000029802324H78.99999V1H75.99999M79.99999 .000000029802324H82.99999V1H79.99999M83.99999 .000000029802324H86.99999V1H83.99999M87.99999 .000000029802324H90.99999V1H87.99999M91.99999 .000000029802324H94.99999V1H91.99999M95.99999 .000000029802324H98.99999V1H95.99999M99.99999 .000000029802324H102.99999V1H99.99999M103.99999 .000000029802324H106.99999V1H103.99999M107.99999 .000000029802324H110.99999V1H107.99999M111.99999 .000000029802324H114.99999V1H111.99999M115.99999 .000000029802324H118.99999V1H115.99999M119.99999 .000000029802324H122.99999V1H119.99999M123.99999 .000000029802324H126.99999V1H123.99999M127.99999 .000000029802324H130.99999V1H127.99999M131.99999 .000000029802324H134.99999V1H131.99999M135.99999 .000000029802324H138.99999V1H135.99999M139.99999 .000000029802324H142.99999V1H139.99999M143.99999 .000000029802324H146.99999V1H143.99999M147.99999 .000000029802324H150.99999V1H147.99999M151.99999 .000000029802324H154.99999V1H151.99999M155.99999 .000000029802324H158.99999V1H155.99999M159.99999 .000000029802324H162.99999V1H159.99999M163.99999 .000000029802324H166.99999V1H163.99999M167.99999 .000000029802324H170.99999V1H167.99999M171.99999 .000000029802324H174.99999V1H171.99999M175.99999 .000000029802324H178.99999V1H175.99999M179.99999 .000000029802324H182.99999V1H179.99999M183.99999 .000000029802324H186.99999V1H183.99999M187.99999 .000000029802324H190.99999V1H187.99999M191.99999 .000000029802324H194.99999V1H191.99999M195.99999 .000000029802324H198.99999V1H195.99999M199.99999 .000000029802324H201.46274V1H199.99999" fill="#575757"/>
<path transform="matrix(-.75,0,0,-.75,196.01897,384.31184)" d="M-.000000000000014210855 .000000029802324H2.9999998V1H-.000000000000014210855M3.9999998 .000000029802324H6.9999997V1H3.9999998M7.9999997 .000000029802324H10.999999V1H7.9999997M11.999999 .000000029802324H14.999999V1H11.999999M15.999999 .000000029802324H18.999999V1H15.999999M19.999999 .000000029802324H22.999999V1H19.999999M23.999999 .000000029802324H26.999999V1H23.999999M27.999999 .000000029802324H30.999999V1H27.999999M31.999999 .000000029802324H34.999998V1H31.999999M35.999998 .000000029802324H38.999998V1H35.999998M39.999998 .000000029802324H42.999998V1H39.999998M43.999998 .000000029802324H46.999998V1H43.999998M47.999998 .000000029802324H50.999998V1H47.999998M51.999998 .000000029802324H54.999998V1H51.999998M55.999998 .000000029802324H58.999998V1H55.999998M59.999998 .000000029802324H62.999998V1H59.999998M63.999998 .000000029802324H66.99999V1H63.999998M67.99999 .000000029802324H70.99999V1H67.99999M71.99999 .000000029802324H74.99999V1H71.99999M75.99999 .000000029802324H78.99999V1H75.99999M79.99999 .000000029802324H82.99999V1H79.99999M83.99999 .000000029802324H86.99999V1H83.99999M87.99999 .000000029802324H90.99999V1H87.99999M91.99999 .000000029802324H94.99999V1H91.99999M95.99999 .000000029802324H98.99999V1H95.99999M99.99999 .000000029802324H102.99999V1H99.99999M103.99999 .000000029802324H106.99999V1H103.99999M107.99999 .000000029802324H110.99999V1H107.99999M111.99999 .000000029802324H114.99999V1H111.99999M115.99999 .000000029802324H118.99999V1H115.99999M119.99999 .000000029802324H122.99999V1H119.99999M123.99999 .000000029802324H126.99999V1H123.99999M127.99999 .000000029802324H130.99999V1H127.99999M131.99999 .000000029802324H134.99999V1H131.99999M135.99999 .000000029802324H138.99999V1H135.99999M139.99999 .000000029802324H142.99999V1H139.99999M143.99999 .000000029802324H146.99999V1H143.99999M147.99999 .000000029802324H150.99999V1H147.99999M151.99999 .000000029802324H154.99999V1H151.99999M155.99999 .000000029802324H158.99999V1H155.99999M159.99999 .000000029802324H162.99999V1H159.99999M163.99999 .000000029802324H166.99999V1H163.99999M167.99999 .000000029802324H170.99999V1H167.99999M171.99999 .000000029802324H174.99999V1H171.99999M175.99999 .000000029802324H178.99999V1H175.99999M179.99999 .000000029802324H182.99999V1H179.99999M183.99999 .000000029802324H186.99999V1H183.99999M187.99999 .000000029802324H190.99999V1H187.99999M191.99999 .000000029802324H194.99999V1H191.99999M195.99999 .000000029802324H198.99999V1H195.99999M199.99999 .000000029802324H201.46274V1H199.99999" fill="#575757"/>
<text fill="#575757" xml:space="preserve" transform="matrix(.75 0 0 .75 52.392995 146.11629)" font-size="12" font-family="Roboto"><tspan y="12" x="0 6.8040006 13.548 20.292 23.268 30.012001 36.756 43.5 50.244 56.988 63.732 70.476 77.22 83.964008">+91 7018191913</tspan></text>
<text fill="#575757" xml:space="preserve" transform="matrix(.75 0 0 .75 52.392995 165.12464)" font-size="12" font-family="Roboto"><tspan y="12" x="0 6.5280005 12.720001 19.332 25.284 31.812 38.544 45.276 51.468004 62.244005 68.976009 79.48801 86.01601 88.93201 91.84801 95.004009 101.28001 108.12001">ashxapps@gmail.com</tspan></text>
<text fill="#575757" xml:space="preserve" transform="matrix(.75 0 0 .75 52.392995 184.32465)" font-size="12" font-family="Roboto"><tspan y="12" x="0 2.9160002 5.8320004 12.456001 18.54 24.900002 31.668002 34.584 41.208 44.364 50.64 57.48 67.992008 72.936008 75.852008 82.476009 87.420009 93.948009 100.14001 106.75201 113.364009 117.28801 124.12801 130.32 136.932 143.664 150.192 153.108 159.732 165.924">linkedin.com/in/ashutoshbains/</tspan></text>
<text fill="#575757" xml:space="preserve" transform="matrix(.75 0 0 .75 52.392995 119.077449)" font-size="17.33" font-family="HKGrotesk" font-weight="bold"><tspan y="16" x="0 15.548965 31.910187 47.586076 61.180559 75.91727 91.46623">CONTACT</tspan></text>
<text fill="#575757" xml:space="preserve" transform="matrix(.75 0 0 .75 52.392995 231.42467)" font-size="17.33" font-family="HKGrotesk" font-weight="bold"><tspan y="16" x="0 13.010666 28.99115 37.593645 49.986665 62.379686 75.39035 89.37404">SKILLSET</tspan></text>
<text fill="#575757" xml:space="preserve" transform="matrix(.75 0 0 .75 52.392995 397.26188)" font-size="17.33" font-family="HKGrotesk" font-weight="bold"><tspan y="16" x="0 13.983688 29.363434 44.438585 59.98755 74.72426 88.31874 96.921237 113.282459">EDUCATION</tspan></text>
<text fill="#575757" xml:space="preserve" transform="matrix(.75 0 0 .75 52.392995 443.1452)" font-size="13.33" font-family="Roboto"><tspan y="12" x="0 8.675003 16.015885 19.250306 23.60408 30.359253 37.609025 42.118989 49.36876 52.66826 61.310716 68.66461 71.89903 78.35484 85.41589 89.92586 96.79817 100.03259 104.38637 110.692508 113.30867 116.60817 124.814609 132.06438 135.24674 142.72429 150.07169 154.58165">Chitkara University, Rajpura</tspan></text>
<text fill="#575757" xml:space="preserve" transform="matrix(.75 0 0 .75 52.392995 427.21189)" font-size="13.33" font-family="Roboto" font-weight="bold"><tspan y="12" x="0 11.675125 20.180924 29.148774 32.46779 40.973588 48.43161 55.28441 58.81819 66.28273 73.48695 80.33975 87.19255 90.511569 99.479419 106.943958 114.0896 117.62338 124.31348 128.81693 132.35071 139.30112">MBA Business Analytics</tspan></text>
<text fill="#575757" xml:space="preserve" transform="matrix(.75 0 0 .75 52.392995 457.94523)" font-size="12" font-family="Roboto"><tspan y="12" x="0 6.6240007 13.236 16.152 19.128 25.872002 32.616 39.36 46.104 49.08 52.392004 55.368005 62.112005 68.856 75.600009">Jul 2023 - 2025</tspan></text>
<text fill="#575757" xml:space="preserve" transform="matrix(.75 0 0 .75 52.392995 259.97468)" font-size="12" font-family="Roboto"><tspan y="12" x="0 7.872 14.400001 18.324002 24.852002 27.828001 35.652 42.276 48.804 51.72 57.396 63.588 66.504">Data Analysis</tspan></text>
<text fill="#575757" xml:space="preserve" transform="matrix(.75 0 0 .75 52.392995 275.40806)" font-size="12" font-family="Roboto"><tspan y="12" x="0 7.872 14.400001 18.324002 24.852002 27.828001 35.460004 38.376005 44.568006 51.180006 57.708005 60.624006 63.540006 69.492008 76.020008 79.94401 82.86001 89.70001">Data Visualization</tspan></text>
<text fill="#575757" xml:space="preserve" transform="matrix(.75 0 0 .75 52.392995 291.60807)" font-size="12" font-family="Roboto"><tspan y="12" x="0 7.872 14.400001 18.324002 24.852002 27.828001 34.944 38.868 45.708 49.764 55.44 59.364 65.724 68.64 71.556 74.472 81.096">Data Storytelling</tspan></text>
<text fill="#575757" xml:space="preserve" transform="matrix(.75 0 0 .75 52.392995 307.05809)" font-size="12" font-family="Roboto"><tspan y="12" x="0 10.476 17.004 23.279999 29.891999 32.808 39.432 45.792 48.768 55.224004 61.584005 68.11201 72.16801 78.79201 81.70801 88.33201">Machine Learning</tspan></text>
<text fill="#575757" xml:space="preserve" transform="matrix(.75 0 0 .75 52.392995 323.31974)" font-size="12" font-family="Roboto"><tspan y="12" x="0 7.1160008 15.372002">SQL</tspan></text>
<text fill="#575757" xml:space="preserve" transform="matrix(.75 0 0 .75 52.392995 339.1364)" font-size="12" font-family="Roboto"><tspan y="12" x="0 7.872 14.232 20.592001 27.324002 30.300002 36.756 43.116 49.644 53.7 60.324 63.24 69.864">Deep Learning</tspan></text>
<text fill="#575757" xml:space="preserve" transform="matrix(.75 0 0 .75 139.24387 259.97468)" font-size="12" font-family="Roboto"><tspan y="12" x="0 7.5720007 13.248001 17.172 23.784 30.624">Python</tspan></text>
<text fill="#575757" xml:space="preserve" transform="matrix(.75 0 0 .75 139.24387 275.40806)" font-size="12" font-family="Roboto"><tspan y="12" x="0 7.5720007 14.412001 23.424002 29.784003 33.840005 36.816007 44.292009">Power BI</tspan></text>
<text fill="#575757" xml:space="preserve" transform="matrix(.75 0 0 .75 139.24387 323.25807)" font-size="12" font-family="Roboto"><tspan y="12" x="0">R</tspan></text>
<text fill="#575757" xml:space="preserve" transform="matrix(.75 0 0 .75 139.24387 291.60807)" font-size="12" font-family="Roboto"><tspan y="12" x="0 10.476 17.592001 20.568 27.384 33.336004 39.612005 45.972005">MS Excel</tspan></text>
<text fill="#575757" xml:space="preserve" transform="matrix(.75 0 0 .75 52.392995 354.9531)" font-size="12" font-family="Roboto"><tspan y="12" x="0 7.8120005">C#</tspan></text>
<text fill="#575757" xml:space="preserve" transform="matrix(.75 0 0 .75 52.392995 512.6702)" font-size="12" font-family="Roboto"><tspan y="12" x="0 7.6320006 10.548 13.416 19.944 25.62 28.596 31.86 38.484 44.676004 48.600004 51.516004 55.440004 62.052003 65.976009 72.336009 75.312007 82.15201 86.31601 89.29201 97.84801 100.76401 107.49601 114.10801 120.46801 124.52401 127.50001 134.31601 141.08402 147.69602 153.97202 160.50002 164.42401 167.34001 174.18001 180.80402 183.15602 186.13202 196.60802 203.13602 209.76001 216.52802">Vijay Institute of Higher Education, Mandi</tspan></text>
<text fill="#575757" xml:space="preserve" transform="matrix(.75 0 0 .75 52.392995 496.57026)" font-size="13.33" font-family="Roboto" font-weight="bold"><tspan y="12" x="0 8.505798 15.6514439 22.601853 30.059876 37.2641 40.797883 48.334 53.19539 56.514406 64.05052 68.8273 72.14632 80.86687 88.402988 99.94145 107.44504 114.90306 119.40651 126.61073 131.47212 134.79114 143.75899 151.26258 158.76616 162.29994 165.83373 172.78414 179.92978 184.43323 187.96701 195.50313 202.96767">Bachelor of Computer Applications</tspan></text>
<text fill="#575757" xml:space="preserve" transform="matrix(.75 0 0 .75 52.392995 527.37026)" font-size="12" font-family="Roboto"><tspan y="12" x="0 6.6240007 13.236 19.86 22.836 29.580002 36.324 43.068 49.812 52.788003 56.100004 59.076005 69.552 76.08 81.756008 84.732 91.476009 98.22001 104.96401">Jun 2018 - May 2021</tspan></text>
<text fill="#575757" xml:space="preserve" transform="matrix(.75 0 0 .75 52.392995 540.93698)" font-size="12" font-family="Roboto"><tspan y="12" x="0 7.8120005 15.984001 23.556002 31.380002 34.356004 37.668004 40.644006 47.388006 50.544008">CGPA - 7.8</tspan></text>
<text fill="#575757" xml:space="preserve" transform="matrix(.75 0 0 .75 52.392995 471.5119)" font-size="12" font-family="Roboto"><tspan y="12" x="0 7.8120005 15.984001 23.556002 31.380002 34.356004 37.668004 40.644006 47.388006 50.544008 57.288007 64.032009 67.008 71.112 75.036 77.952 80.868007 83.784008 86.76 93.504009 99.69601 103.62001 106.59601 112.78801 119.14801 129.66 136.02 142.212 146.136 152.496 156.552">CGPA - 9.87 (till 1st semester)</tspan></text>
<text fill="#575757" xml:space="preserve" transform="matrix(.75 0 0 .75 52.392995 581.9953)" font-size="13.33" font-family="Roboto"><tspan y="12" x="0 8.740082 17.4346 25.914368 29.213868 37.88887 44.94992 52.303819 56.657594 63.718645 71.07254 78.32231 82.832279 89.13841 92.43791 100.846088 108.19348 115.671039 118.90546 122.13988 129.11632 132.41582 140.32289 147.29933 154.64022 162.24141 169.8426 173.07703 175.69319 178.99269 190.62877 197.87854 205.23244 212.74904">DAV Centenary Public School, Mandi</tspan></text>
<text fill="#575757" xml:space="preserve" transform="matrix(.75 0 0 .75 52.392995 565.9953)" font-size="13.33" font-family="Roboto" font-weight="bold"><tspan y="12" x="0 9.416901 12.950684 20.558396 28.016419 35.220643 40.08203 43.401048 51.594469 58.79869 65.7491 73.28522 80.749759 88.25984 95.40549 100.26688 106.95697 110.275989 117.773059 125.28314 132.74117 139.69158 146.83722 151.34067 154.87445 162.41057">Higher Secondary Education</tspan></text>
<text fill="#575757" xml:space="preserve" transform="matrix(.75 0 0 .75 52.392995 596.7953)" font-size="12" font-family="Roboto"><tspan y="12" x="0 6.7440006 13.488001 20.232003 26.976002 29.952002 33.264 36.24 42.984 49.728 56.472">2015 - 2016</tspan></text>
<text fill="#575757" xml:space="preserve" transform="matrix(.75 0 0 .75 52.392995 610.36196)" font-size="12" font-family="Roboto"><tspan y="12" x="0 7.5720007 13.932001 17.988 24.264 30.624 37.248 41.172 47.7 54.432 60.792 63.768 67.08 70.056 76.8 83.54401 86.700008 93.44401">Percentage - 85.6%</tspan></text>
<text fill="#575757" xml:space="preserve" transform="matrix(.75 0 0 .75 52.392995 651.0787)" font-size="13.33" font-family="Roboto"><tspan y="12" x="0 3.6248933 10.97879 18.495392 25.842789 32.715105 36.014604 47.839418 55.440614 59.950578 63.184999 70.7016 74.0011 81.90817 88.88461 96.225498 103.82669 111.42789 114.66231 117.27847 120.57797 132.21405 139.46382 146.81772 154.33432">Indus World School, Mandi</tspan></text>
<text fill="#575757" xml:space="preserve" transform="matrix(.75 0 0 .75 52.392995 635.0787)" font-size="13.33" font-family="Roboto" font-weight="bold"><tspan y="12" x="0 8.19342 15.397644 22.348053 29.88417 37.34871 44.858797 52.00444 56.86583 63.555925 66.87494 74.37201 81.882099 89.34012 96.29053 103.43617 107.93962 111.473407 119.00952">Secondary Education</tspan></text>
<text fill="#575757" xml:space="preserve" transform="matrix(.75 0 0 .75 52.392995 665.87869)" font-size="12" font-family="Roboto"><tspan y="12" x="0 6.7440006 13.488001 20.232003 26.976002 29.952002 33.264 36.24 42.984 49.728 56.472">2013 - 2014</tspan></text>
<text fill="#575757" xml:space="preserve" transform="matrix(.75 0 0 .75 52.392995 679.4453)" font-size="12" font-family="Roboto"><tspan y="12" x="0 7.8120005 15.984001 23.556002 31.380002 34.356004 37.668004 40.644006 47.388006 50.544008">CGPA - 9.6</tspan></text>
<path transform="matrix(-.75,0,0,-.75,549.1544,322.52104)" d="M0 0H3V1H0M4 0H7V1H4M8 0H11V1H8M12 0H15V1H12M16 0H19V1H16M20 0H23V1H20M24 0H27V1H24M28 0H31V1H28M32 0H35V1H32M36 0H39V1H36M40 0H43V1H40M44 0H47V1H44M48 0H51V1H48M52 0H55V1H52M56 0H59V1H56M60 0H63V1H60M64 0H67V1H64M68 0H71V1H68M72 0H75V1H72M76 0H79V1H76M80 0H83V1H80M84 0H87V1H84M88 0H91V1H88M92 0H95V1H92M96 0H99V1H96M100 0H103V1H100M104 0H107V1H104M108 0H111V1H108M112 0H115V1H112M116 0H119V1H116M120 0H123V1H120M124 0H127V1H124M128 0H131V1H128M132 0H135V1H132M136 0H139V1H136M140 0H143V1H140M144 0H147V1H144M148 0H151V1H148M152 0H155V1H152M156 0H159V1H156M160 0H163V1H160M164 0H167V1H164M168 0H171V1H168M172 0H175V1H172M176 0H179V1H176M180 0H183V1H180M184 0H187V1H184M188 0H191V1H188M192 0H195V1H192M196 0H199V1H196M200 0H203V1H200M204 0H207V1H204M208 0H211V1H208M212 0H215V1H212M216 0H219V1H216M220 0H223V1H220M224 0H227V1H224M228 0H231V1H228M232 0H235V1H232M236 0H239V1H236M240 0H243V1H240M244 0H247V1H244M248 0H251V1H248M252 0H255V1H252M256 0H259V1H256M260 0H263V1H260M264 0H267V1H264M268 0H271V1H268M272 0H275V1H272M276 0H279V1H276M280 0H283V1H280M284 0H287V1H284M288 0H291V1H288M292 0H295V1H292M296 0H299V1H296M300 0H303V1H300M304 0H307V1H304M308 0H311V1H308M312 0H315V1H312M316 0H319V1H316M320 0H323V1H320M324 0H327V1H324M328 0H331V1H328M332 0H335V1H332M336 0H339V1H336M340 0H343V1H340M344 0H347V1H344M348 0H351V1H348M352 0H355V1H352M356 0H359V1H356M360 0H363V1H360M364 0H367V1H364M368 0H371V1H368M372 0H375V1H372M376 0H379V1H376M380 0H383V1H380M384 0H387V1H384M388 0H391V1H388M392 0H395V1H392M396 0H397.08079V1H396" fill="#575757"/>
<text fill="#575757" xml:space="preserve" transform="matrix(.75 0 0 .75 255.32402 334.72105)" font-size="17.33" font-family="HKGrotesk" font-weight="bold"><tspan y="16" x="0 13.289886 27.358185 43.719408 56.772386 70.75607 86.30504 99.89952">PROJECTS</tspan></text>
<text fill="#575757" xml:space="preserve" transform="matrix(.75 0 0 .75 255.32402 379.95436)" font-size="12" font-family="Roboto"><tspan y="12" x="0 7.776 11.700001 14.616001 17.532002 20.448002 26.400002 32.760004 39.528005 45.72377 52.455774 56.511774 62.871774 69.63977 72.55577 78.83177 82.755779 85.671779 91.479778 97.839778 104.051059 114.56306 121.40306 128.17107 134.53107 137.44707 140.36307 143.27907 149.90308 156.63507 162.84123 166.76523 173.12523 179.40123 186.01323 192.63724 195.55324 202.36923 208.98123 215.34123 221.53324 227.73688 231.66088 238.50087 244.71456 251.44655 257.80439 261.86039 266.02439 272.86439 276.92039 287.43238 293.66685 297.59086 303.95088 306.86686 313.22688 319.50288 326.34288 336.85487 343.0703 349.3463 355.9583 362.1503 366.0743 372.9143 383.4263 389.78633">Utilized predictive modelling techniques to perform telecom customer</tspan></text>
<text fill="#575757" xml:space="preserve" transform="matrix(.75 0 0 .75 255.32402 379.95436)" font-size="12" font-family="Roboto"><tspan y="28" x="0 6.276 12.8880009 19.5 23.556 30.18 33.156003 39.888 43.944 50.304 57.072004 59.988004 66.264 70.188 73.104007 79.94401 86.56801 89.54401 96.156009 102.34801 105.26401 111.88801 118.62001 121.59601 129.16802 134.84401 138.768 145.38 152.22 158.844 161.196 164.172 171.744 178.272 184.896 191.664 198.192 204.384 207.36 213.888 220.512 227.28 230.256 237.372 243.456 246.372 252.732 259.26 263.316 269.94">churn prediction using Python, Pandas and Sklearn.</tspan></text>
<text fill="#575757" xml:space="preserve" transform="matrix(.75 0 0 .75 255.32402 363.92103)" font-size="13.33" font-family="Roboto" font-weight="bold"><tspan y="12" x="0 8.720551 16.178574 23.031373 27.53482 35.07094 46.609407 53.81363 58.67502 61.994035 70.714588 78.17261 85.63063 90.49202 97.95656 101.27557 109.87248 114.73387 121.938098 129.44818 132.98197 139.93238 144.43582 147.9696 155.50572">Customer Churn Prediction</tspan></text>
<text fill="#575757" xml:space="preserve" transform="matrix(.75 0 0 .75 400.30747 364.67103)" font-size="12" font-family="Roboto" font-weight="bold"><tspan y="12" x="172.07813 178.96613 185.85413 192.74213">2024</tspan></text>
<text fill="#575757" xml:space="preserve" transform="matrix(.75 0 0 .75 255.32402 431.58775)" font-size="12" font-family="Roboto"><tspan y="12" x="0 7.8120005 14.652 21.276001 28.044 34.656003 40.932004 44.856004 51.216005 57.984006 61.300565 68.68924 75.32524 85.80124 89.11481 95.30681 101.66681 108.39881 118.91081 125.27081 131.8948 135.8188 142.3468 146.2708 149.1868 156.0268 162.65079 165.94858 172.47658 179.10059 185.62859 188.54459 194.22058 200.41259 203.32859 209.52059 212.8175 219.6575 226.2815 229.59854 240.11054 246.72254 252.91454 255.83054 262.10655 265.4284 271.6204 275.5444 282.3844 286.4404 292.8004 296.11375 302.88175 309.40977 313.33378 319.8618 326.05378 332.41377 336.33778 339.63697 346.24897 352.44096 355.35694 361.98094 368.71293 372.0215 379.1375 387.39353">Conducted RFM segmentation analysis on music store dataset using SQL</tspan></text>
<text fill="#575757" xml:space="preserve" transform="matrix(.75 0 0 .75 255.32402 431.58775)" font-size="12" font-family="Roboto"><tspan y="28" x="0 6.816 13.4279999 19.788 23.844 26.76 33.120004 39.312005 41.664007 44.640008 51.000009 57.62401 64.15201 70.88401 73.80001 76.71601 83.34001 90.072017 93.04801 96.972019 103.500019 107.556018 114.28802 120.64802 124.57202 130.93202 137.70003 140.67603 151.18802 157.71602 161.77202 167.85602 174.21602 178.14002 181.05602 187.68003 194.41202 197.38802 203.58002 207.50402 211.56002 218.08802 222.01201 228.37201 235.104 238.02 244.38 250.572">queries, enabling targeted marketing strategies.</tspan></text>
<text fill="#575757" xml:space="preserve" transform="matrix(.75 0 0 .75 255.32402 415.5544)" font-size="13.33" font-family="Roboto" font-weight="bold"><tspan y="12" x="0 8.505798 15.807632 27.482758 30.801774 38.995195 46.199419 53.80713 65.3456 72.54982 80.01436 84.51781 91.66345 96.1669 99.70068 107.2368 114.70134 118.020359 126.988208 134.45275 141.59839 145.13217 151.82227 158.67507 162.20885">RFM Segmentation Analysis</tspan></text>
<text fill="#575757" xml:space="preserve" transform="matrix(.75 0 0 .75 400.30747 416.30436)" font-size="12" font-family="Roboto" font-weight="bold"><tspan y="12" x="172.07813 178.96613 185.85413 192.74213">2024</tspan></text>
<text fill="#575757" xml:space="preserve" transform="matrix(.75 0 0 .75 254.95453 483.35435)" font-size="12" font-family="Roboto"><tspan y="12" x="0 7.8120005 11.868 18.228 24.756 28.68 35.04 41.808004 44.949609 51.477609 58.10161 61.246873 64.16287 70.78687 74.71088 81.07088 87.80288 91.85888 98.38688 102.31088 108.67088 115.43888 118.57148 127.12748 134.51483 137.66367 144.43167 150.95967 157.15167 163.76367 170.49567 177.33567 183.86367 187.91967 194.68767 197.83594 200.75194 207.37595 210.51798 218.08998 224.92998 233.94199 240.30199 244.35799 247.51642 254.99242 258.2564 260.6084 263.7551 266.67109 273.29508 279.57109 286.41108 290.46708 297.19908 304.03907 308.09507 314.62309 318.5471 321.46308 328.08708 334.81907 337.9723 345.54429 351.22029 355.1443 361.7563 368.59629 375.22029 378.3633 382.5273 389.3673">Created an integrated HR dashboard in Power BI, incorporating Python for</tspan></text>
<text fill="#575757" xml:space="preserve" transform="matrix(.75 0 0 .75 254.95453 483.35435)" font-size="12" font-family="Roboto"><tspan y="28" x="0 6.5280005 12.804001 19.080002 25.692002 29.748002 36.276 40.2 46.56 49.536005 55.896005 66.408008 73.14001 76.05601 82.89601 88.572017 94.932018 101.292018 104.26801 110.79601 114.72002 118.64402 122.70002 125.61602 129.54003 132.45603 139.29602 145.92002 148.89601 155.628 159.684 166.044 172.81201 175.72801 182.00402 185.92801 188.84401 195.684 202.30802 205.28401 211.81201 218.436 225.20401 228.18001 234.70801 240.98401 244.908 247.824 254.664 261.288 267.816 274.548 277.464 283.82398 286.8 289.71598 296.33998 302.53196 305.44795 312.17994 318.79194 322.71595 328.90794">accurate employee attrition prediction and actionable insights.</tspan></text>
<text fill="#575757" xml:space="preserve" transform="matrix(.75 0 0 .75 254.64116 467.18775)" font-size="13.33" font-family="Roboto" font-weight="bold"><tspan y="12" x="0 9.416901 17.922699 21.241715 30.209565 34.713014 39.21646 44.07785 47.611635 52.11508 55.648866 63.184984 70.64952 73.96854 82.63052 89.77617 96.62897 104.08699 111.590579 119.12669 126.27234 131.13373">HR Attrition Dashboard</tspan></text>
<text fill="#575757" xml:space="preserve" transform="matrix(.75 0 0 .75 401.22169 467.93775)" font-size="12" font-family="Roboto" font-weight="bold"><tspan y="12" x="171.1875 178.0755 184.9635 191.8515">2024</tspan></text>
<text fill="#575757" xml:space="preserve" transform="matrix(.75 0 0 .75 254.64116 536.48776)" font-size="12" font-family="Roboto"><tspan y="12" x="0 3.2640002 13.776001 20.508002 23.424002 29.784003 40.296007 46.656007 53.280008 57.204008 63.564008 70.33201 75.117839 81.74184 88.10184 94.71384 98.76984 105.29784 108.21384 113.0052 119.6292 125.989208 129.91321 138.9252 145.7652 149.8212 155.9052 159.2172 165.94919 172.47719 178.66919 185.02919 191.7972 196.58399 199.49999 210.012 216.54 223.27199 229.63199 234.42449 240.70049 243.61649 250.14449 256.3327 262.5247 265.44068 269.60469 272.52067 278.79667 285.32469 289.2487 292.16468 299.00468 305.62867 310.40953 314.57353 321.4135 325.4695 330.27345 336.63343 342.90943 349.74943 360.2614 370.7734 377.13343 381.18943 387.46543">Implemented neural network-based image classification for ecommerce</tspan></text>
<text fill="#575757" xml:space="preserve" transform="matrix(.75 0 0 .75 254.64116 536.48776)" font-size="12" font-family="Roboto"><tspan y="28" x="0 6.7320005 10.788 17.628 24.396 31.008 37.284 41.208 47.4 50.376005 56.988004 63.180006 66.096 72.72 79.452 82.428 89.592 95.952 102.576007 108.768009 115.60801 119.66401 126.30001 129.216 136.056 145.068 148.04399 154.57199 161.19599 167.96399 170.93999 178.512 184.18799 188.11199 194.72399 201.56398 208.18799">products using TensorFlow and Python.</tspan></text>
<text fill="#575757" xml:space="preserve" transform="matrix(.75 0 0 .75 254.64116 520.3877)" font-size="13.33" font-family="Roboto" font-weight="bold"><tspan y="12" x="0 9.410385 16.614609 24.072632 28.934021 36.079668 39.61345 42.932466 52.34285 59.547075 64.05052 73.84488 81.381 86.242389 93.362 96.681018 101.457798 108.99391 113.8553 117.17432 121.059528 132.59799 139.74364 147.35135 154.55558 157.87459 166.59514 170.12892 177.27457 184.12737 190.98017 194.51395 199.29073 202.82451 209.77492 216.92057 221.42401 224.9578 232.49391">Neural Network for Image Classification</tspan></text>
<text fill="#575757" xml:space="preserve" transform="matrix(.75 0 0 .75 401.22169 521.1377)" font-size="12" font-family="Roboto" font-weight="bold"><tspan y="12" x="170.70313 177.59113 184.47913 191.36713">2024</tspan></text>
<text fill="#575757" xml:space="preserve" transform="matrix(.75 0 0 .75 254.95453 588.12106)" font-size="12" font-family="Roboto"><tspan y="12" x="0 7.872 14.232 20.04 26.400002 29.316002 36.156003 42.888 49.248 56.016004 58.992006 65.520008 68.496 74.688 81.216 84.132 90.492008 96.684009 99.66 106.50001 112.30801 118.66801 122.72401 128.53202 131.44802 137.80802 146.82 149.796 156.56401 163.09201 169.28401 175.89601 182.628 189.468 195.996 200.052 206.82 209.796 212.712 219.336 222.312 232.788 239.90399 242.87999 249.69599 255.64798 261.92399 268.284 271.19999">Developed a sales overview dashboard in MS Excel,</tspan></text>
<text fill="#575757" xml:space="preserve" transform="matrix(.75 0 0 .75 254.95453 588.12106)" font-size="12" font-family="Roboto"><tspan y="28" x="0 6.8400008 11.004001 15.168001 21.528002 25.584002 28.500002 35.124 41.856004 44.832006 47.748006 54.372007 60.564008 63.480009 70.212009 76.824008 80.74801 86.94001 89.91601 94.08001 100.92001 104.97601 107.95201 114.68401 121.044017 125.10001 129.264 136.104 140.16 150.672 157.2 163.824 170.1 176.46 179.436 185.964 192.58802 199.11602 202.03202 207.70801 213.90001 216.81601 223.00801 225.98401 232.51201 239.13602 245.90402 248.88002 255.64803 262.00804 268.28404 271.2 277.392 280.30799 287.14799 293.77198 297.08399 307.59599 314.124 320.208 323.124 329.748 336.47999">offering insights for performance analysis and decision-making.</tspan></text>
<text fill="#575757" xml:space="preserve" transform="matrix(.75 0 0 .75 254.64116 572.02108)" font-size="13.33" font-family="Roboto" font-weight="bold"><tspan y="12" x="0 8.19342 15.339066 18.872849 26.077073 32.92987 36.248888 45.45102 52.186677 59.3909 64.25229 70.987949 74.52173 81.72595 91.52031 94.839328 103.50131 110.64696 117.499759 124.95778 132.46137 139.99748 147.14313 152.00452">Sales Overview Dashboard</tspan></text>
<text fill="#575757" xml:space="preserve" transform="matrix(.75 0 0 .75 401.56028 572.49526)" font-size="12" font-family="Roboto" font-weight="bold"><tspan y="12" x="170.28125 177.16925 184.05725 190.94525">2024</tspan></text>
<text fill="#575757" xml:space="preserve" transform="matrix(.75 0 0 .75 254.44406 643.6937)" font-size="17.33" font-family="HKGrotesk" font-weight="bold"><tspan y="16" x="0 15.548965 29.532654 43.600954 57.195436 65.79793 79.6124 88.21489 103.763858 118.500568 132.09505 140.69754 157.05876 172.73465">CERTIFICATIONS</tspan></text>
<text fill="#575757" xml:space="preserve" transform="matrix(.75 0 0 .75 254.44406 692.3286)" font-size="12" font-family="Roboto"><tspan y="12" x="0 7.872 14.400001 18.324002 24.852002 27.828001 38.304 45.144 51.912004 58.272005 61.188005 64.104007 67.020008 73.644008 80.37601 83.352008 86.268009 92.892009 95.868007 103.44 110.28001 119.29201 125.65201 129.70801 132.684 140.16">Data Modelling in Power BI</tspan></text>
<text fill="#575757" xml:space="preserve" transform="matrix(.75 0 0 .75 254.44406 692.3286)" font-size="12" font-family="Roboto"><tspan y="12" x="143.39063"> </tspan></text>
<text fill="#575757" xml:space="preserve" transform="matrix(.75 0 0 .75 403.09214 691.89828)" font-size="12" font-family="Roboto" font-weight="bold"><tspan y="12" x="168.20313 175.09113 181.97913 188.86713">2024</tspan></text>
<text fill="#575757" xml:space="preserve" transform="matrix(.75 0 0 .75 254.44406 747.4232)" font-size="12" font-family="Roboto"><tspan y="12" x="0 6.816 12.768 16.692 20.748 27.276 33.552 37.475999 39.828 42.804 49.968004 54.024003 60.552003 67.176 73.368007 77.532009 84.37201 88.42801 98.94001 101.91601 108.44401 115.06801 121.836009 124.812007 131.268 138.108 144.636 151.404 154.38 162.252 168.78 172.704 179.232 182.208 185.124 191.74799 194.72399 202.29599 209.13599 218.14798 224.50798 228.56398 231.53998 239.01598">Extract, Transform and Load Data in Power BI</tspan></text>
<text fill="#575757" xml:space="preserve" transform="matrix(.75 0 0 .75 403.09214 710.2482)" font-size="12" font-family="Roboto" font-weight="bold"><tspan y="12" x="168.20313 175.09113 181.97913 188.86713">2024</tspan></text>
<text fill="#575757" xml:space="preserve" transform="matrix(.75 0 0 .75 403.45588 729.44827)" font-size="12" font-family="Roboto" font-weight="bold"><tspan y="12" x="168.20313 175.09113 181.97913 188.86713">2024</tspan></text>
<text fill="#575757" xml:space="preserve" transform="matrix(.75 0 0 .75 254.44406 710.5134)" font-size="12" font-family="Roboto"><tspan y="12" x="0 8.556001 15.084002 19.140002 25.764002 32.124 38.316 44.508005 47.424005 54.048006 60.780008 63.75601 67.68001 74.29201 80.65201 83.628009 91.200008 98.04001 107.05201 113.41201 117.46801 120.44401 127.28401 131.44802 134.42401 142.296 148.824 152.748 159.276 162.252 171.264 174.18001 178.104 184.716 187.692 195.264 202.104 211.116 217.476 221.532 224.508 231.984">Harnessing the Power of Data with Power BI</tspan></text>
<text fill="#575757" xml:space="preserve" transform="matrix(.75 0 0 .75 403.21876 747.7838)" font-size="12" font-family="Roboto" font-weight="bold"><tspan y="12" x="168.20313 175.09113 181.97913 188.86713">2024</tspan></text>
<text fill="#575757" xml:space="preserve" transform="matrix(.75 0 0 .75 254.44406 729.44827)" font-size="12" font-family="Roboto"><tspan y="12" x="0 3.2640002 9.8880009 13.812 17.868 24.708 31.476 38.088 44.364004 48.288003 51.204004 58.044004 64.668 67.644 71.568 78.408008 81.384 88.548007 94.908008 101.532009 107.72401 114.56401 118.62001 125.25601 128.17201 135.01201 144.02402 147.00002 151.16402 158.00402 162.06002 165.03601 172.86002 176.12403 178.47603 181.45203 191.92803 198.38402 201.36002 207.88802 214.51203 221.28003 224.25603 232.12802">Introduction to TensorFlow for AI, ML and DL</tspan></text>
<path transform="matrix(-.75,0,0,-.75,550.2677,631.4938)" d="M.00000000000005684342 0H3V1H.00000000000005684342M4 0H7V1H4M8 0H11V1H8M12 0H15V1H12M16 0H19V1H16M20 0H23V1H20M24 0H27V1H24M28 0H31V1H28M32 0H35V1H32M36 0H39V1H36M40 0H43V1H40M44 0H47V1H44M48 0H51V1H48M52 0H55V1H52M56 0H59V1H56M60 0H63V1H60M64 0H67V1H64M68 0H71V1H68M72 0H75V1H72M76 0H79V1H76M80 0H83V1H80M84 0H87V1H84M88 0H91V1H88M92 0H95V1H92M96 0H99V1H96M100 0H103V1H100M104 0H107V1H104M108 0H111V1H108M112 0H115V1H112M116 0H119V1H116M120 0H123V1H120M124 0H127V1H124M128 0H131V1H128M132 0H135V1H132M136 0H139V1H136M140 0H143V1H140M144 0H147V1H144M148 0H151V1H148M152 0H155V1H152M156 0H159V1H156M160 0H163V1H160M164 0H167V1H164M168 0H171V1H168M172 0H175V1H172M176 0H179V1H176M180 0H183V1H180M184 0H187V1H184M188 0H191V1H188M192 0H195V1H192M196 0H199V1H196M200 0H203V1H200M204 0H207V1H204M208 0H211V1H208M212 0H215V1H212M216 0H219V1H216M220 0H223V1H220M224 0H227V1H224M228 0H231V1H228M232 0H235V1H232M236 0H239V1H236M240 0H243V1H240M244 0H247V1H244M248 0H251V1H248M252 0H255V1H252M256 0H259V1H256M260 0H263V1H260M264 0H267V1H264M268 0H271V1H268M272 0H275V1H272M276 0H279V1H276M280 0H283V1H280M284 0H287V1H284M288 0H291V1H288M292 0H295V1H292M296 0H299V1H296M300 0H303V1H300M304 0H307V1H304M308 0H311V1H308M312 0H315V1H312M316 0H319V1H316M320 0H323V1H320M324 0H327V1H324M328 0H331V1H328M332 0H335V1H332M336 0H339V1H336M340 0H343V1H340M344 0H347V1H344M348 0H351V1H348M352 0H355V1H352M356 0H359V1H356M360 0H363V1H360M364 0H367V1H364M368 0H371V1H368M372 0H375V1H372M376 0H379V1H376M380 0H383V1H380M384 0H387V1H384M388 0H391V1H388M392 0H395V1H392M396 0H398.57023V1H396" fill="#575757"/>
<text fill="#575757" xml:space="preserve" transform="matrix(.75 0 0 .75 254.44406 670.2287)" font-size="13.33" font-family="Roboto" font-weight="bold" font-style="italic"><tspan y="12" x="0 7.145645 11.92894 19.302369 30.56099 33.847475 42.372789 49.746217 57.04805 61.831346 68.54097 75.595508 80.3788 87.37477">From Coursera:</tspan></text>
<text fill="#575757" xml:space="preserve" transform="matrix(.75 0 0 .75 139.24387 307.05809)" font-size="12" font-family="Roboto"><tspan y="12" x="0 7.164 13.524 20.148 26.34 33.18 37.236 43.872 46.788003 53.628004">TensorFlow</tspan></text>
</g>
</svg>
